<svg id="Capa_1" enable-background="new 0 0 512.004 512.004" height="512" viewBox="0 0 512.004 512.004" width="512" xmlns="http://www.w3.org/2000/svg"><g><g id="Page-1_11_"><g id="_x30_12---Click-and-Drag"><path id="Shape_118_" d="m4.125 247.36 42.108-33.439c3.128-2.278 7.302-2.508 10.661-.588 3.359 1.921 5.278 5.635 4.902 9.486v66.878c.381 3.853-1.537 7.57-4.897 9.493s-7.537 1.694-10.666-.586l-42.108-33.439c-2.617-2.217-4.125-5.473-4.125-8.902 0-3.43 1.508-6.686 4.125-8.903z"/><path id="Shape_117_" d="m507.88 247.36-42.108-33.439c-3.128-2.278-7.302-2.508-10.661-.588-3.359 1.921-5.278 5.635-4.902 9.486v66.878c-.381 3.853 1.537 7.57 4.897 9.493s7.537 1.694 10.666-.586l42.108-33.439c2.616-2.217 4.125-5.473 4.125-8.903-.001-3.429-1.509-6.685-4.125-8.902z"/><path id="Shape_116_" d="m105.933 199.382 141.242-141.241v-31.656h-5.173l-136.069 136.068z"/><path id="Shape_115_" d="m220.692 141.243c.06-16.052 10.94-30.044 26.483-34.057v-24.081l-119.932 119.932h36.829l56.62-56.62z"/><path id="Shape_114_" d="m406.071 203.037v-44.138c-.083-73.096-59.318-132.331-132.414-132.414h-8.828v80.702c15.543 4.013 26.423 18.005 26.483 34.057v61.793z"/><path id="Shape_113_" d="m220.692 171.381-31.656 31.656h31.656z"/><path id="Shape_112_" d="m105.933 353.106c.083 73.096 59.318 132.331 132.414 132.414h35.31c73.096-.083 132.331-59.318 132.414-132.414v-132.414h-116.012c-3.964 15.574-17.987 26.475-34.057 26.475s-30.093-10.901-34.057-26.475h-116.012z"/><path id="Shape_111_" d="m256.002 229.519c9.751 0 17.655-7.904 17.655-17.655v-70.621c0-9.751-7.904-17.655-17.655-17.655s-17.655 7.904-17.655 17.655v70.621c0 9.751 7.904 17.655 17.655 17.655z"/><path id="Shape_110_" d="m214.821 28.701c-54.291 9.896-96.777 52.382-106.673 106.673z"/></g></g></g></svg>