<svg id="Capa_1" enable-background="new 0 0 512 512" height="512" viewBox="0 0 512 512" width="512" xmlns="http://www.w3.org/2000/svg"><g><g id="Page-1_5_"><g id="_x30_06---Right-Click"><path id="Shape_61_" d="m260.414 167.724v5.173l78.389-78.398c-5.989-6.339-12.586-12.075-19.694-17.126l-67.399 67.399c5.575 6.35 8.667 14.502 8.704 22.952z"/><path id="Shape_60_" d="m260.414 197.862v31.656h5.173l97.986-97.986c-3.689-8.219-8.209-16.04-13.489-23.34z"/><path id="Shape_59_" d="m327.38 229.517 47.616-47.616c-.277-10.832-1.89-21.589-4.802-32.026l-79.642 79.642z"/><path id="Shape_58_" d="m375.172 229.517v-22.828l-22.828 22.828z"/><path id="Shape_57_" d="m242.759 52.966h-8.828v22.828l22.148-22.157c-4.378-.433-8.818-.671-13.32-.671z"/><path id="Shape_56_" d="m303.616 67.902c-8.456-4.374-17.362-7.817-26.562-10.266l-43.123 43.123v32.909c1.015.265 2.004.583 2.984.927z"/><path id="Shape_55_" d="m189.793 167.724c.06-16.052 10.94-30.044 26.483-34.057v-80.701h-8.828c-73.096.083-132.331 59.318-132.414 132.414v44.138h114.759z"/><path id="Shape_54_" d="m207.448 167.724v70.621c0 9.751 7.904 17.655 17.655 17.655s17.655-7.904 17.655-17.655v-70.621c0-9.751-7.904-17.655-17.655-17.655s-17.655 7.904-17.655 17.655z"/><path id="Shape_53_" d="m207.448 512h35.31c73.096-.083 132.331-59.318 132.414-132.414v-132.414h-116.012c-3.964 15.574-17.987 26.475-34.057 26.475s-30.093-10.901-34.057-26.475h-116.012v132.414c.083 73.096 59.318 132.331 132.414 132.414z"/><path id="Shape_52_" d="m348.69 52.966c4.875 0 8.828-3.952 8.828-8.828v-35.31c0-4.875-3.952-8.828-8.828-8.828s-8.828 3.952-8.828 8.828v35.31c0 4.875 3.952 8.828 8.828 8.828z"/><path id="Shape_51_" d="m384 61.793c2.341 0 4.586-.931 6.241-2.586l24.964-24.973c2.295-2.216 3.215-5.499 2.407-8.585s-3.218-5.497-6.305-6.305c-3.086-.808-6.368.112-8.585 2.407l-24.964 24.973c-2.524 2.525-3.279 6.321-1.913 9.619 1.367 3.299 4.585 5.449 8.155 5.45z"/><path id="Shape_50_" d="m384 88.276c0 4.875 3.952 8.828 8.828 8.828h35.31c4.875 0 8.828-3.952 8.828-8.828 0-4.875-3.952-8.828-8.828-8.828h-35.31c-4.876 0-8.828 3.953-8.828 8.828z"/></g></g></g></svg>