<svg id="Capa_1" enable-background="new 0 0 512.011 512.011" height="512" viewBox="0 0 512.011 512.011" width="512" xmlns="http://www.w3.org/2000/svg"><g><g id="Page-1_9_"><g id="_x30_10---Scroll" transform="translate(0 -1)"><path id="Shape_94_" d="m237.72 174.725v54.857c0 10.099 8.187 18.286 18.286 18.286s18.286-8.187 18.286-18.286v-54.857c0-10.099-8.187-18.286-18.286-18.286-10.1 0-18.286 8.187-18.286 18.286z"/><path id="Shape_93_" d="m219.434 174.725c.062-16.625 11.331-31.117 27.429-35.273v-19.584c-10.099 0-18.286-8.187-18.286-18.286v-9.143h-6.126c-11.279-.005-21.622-6.276-26.843-16.274-5.367-10.137-4.662-22.415 1.829-31.872l.558-.805c-57.775 17.597-97.298 70.841-97.417 131.237v45.714h118.857v-45.714z"/><path id="Shape_92_" d="m222.451 74.154h15.269c5.049 0 9.143 4.093 9.143 9.143v18.286h18.286v-18.287c0-5.049 4.093-9.143 9.143-9.143h15.269c4.503.026 8.633-2.494 10.67-6.51 2.228-4.126 1.941-9.155-.741-13.001l-33.62-48.456c-2.232-3.247-5.92-5.186-9.86-5.186s-7.628 1.939-9.861 5.186l-33.655 48.457c-2.663 3.842-2.938 8.854-.713 12.965 2.027 4.029 6.159 6.565 10.67 6.546z"/><path id="Shape_91_" d="m289.56 92.439h-6.126v9.143c0 10.099-8.187 18.286-18.286 18.286v19.584c16.098 4.156 27.366 18.648 27.429 35.273v45.714h118.857v-45.714c-.118-60.401-39.651-113.649-97.435-131.237l.53.759c6.503 9.469 7.208 21.768 1.829 31.918-5.214 9.984-15.535 16.252-26.798 16.274z"/><path id="Shape_90_" d="m237.72 513.011h36.571c75.706-.086 137.057-61.436 137.143-137.143v-137.143h-120.156c-4.105 16.13-18.629 27.42-35.273 27.42s-31.168-11.29-35.273-27.42h-120.155v137.143c.085 75.706 61.436 137.057 137.143 137.143zm-42.112-184.869c5.221-9.998 15.564-16.269 26.843-16.274h6.126v-9.143c0-10.099 8.187-18.286 18.286-18.286h18.286c10.099 0 18.286 8.187 18.286 18.286v9.143h6.126c11.279.005 21.622 6.276 26.843 16.274 5.367 10.137 4.662 22.415-1.829 31.872l-33.664 48.457c-5.649 8.177-14.953 13.058-24.891 13.058s-19.243-4.881-24.891-13.058l-33.629-48.457c-6.505-9.446-7.234-21.722-1.892-31.872z"/><path id="Shape_89_" d="m246.14 398.085c2.323 3.111 5.978 4.943 9.861 4.943s7.538-1.832 9.861-4.943l33.655-48.457c2.663-3.842 2.938-8.854.713-12.965-2.036-4.016-6.167-6.536-10.67-6.51h-15.269c-5.049 0-9.143-4.093-9.143-9.143v-18.286h-18.286v18.286c0 5.049-4.093 9.143-9.143 9.143h-15.269c-4.502-.026-8.633 2.494-10.67 6.51-2.228 4.126-1.941 9.155.741 13.001z"/></g></g></g></svg>